<?xml version="1.0" encoding="UTF-8" standalone="no"?>
<!DOCTYPE svg PUBLIC "-//W3C//DTD SVG 1.1//EN"
 "http://www.w3.org/Graphics/SVG/1.1/DTD/svg11.dtd">
<!-- Generated by graphviz version 2.43.0 (0)
 -->
<!-- Title: G Pages: 1 -->
<svg width="363pt" height="369pt"
 viewBox="0.00 0.00 363.24 368.84" xmlns="http://www.w3.org/2000/svg" xmlns:xlink="http://www.w3.org/1999/xlink">
<g id="graph0" class="graph" transform="scale(1 1) rotate(0) translate(4 364.84)">
<title>G</title><style>.edge>path:hover{stroke-width:8}</style>
<polygon fill="white" stroke="transparent" points="-4,4 -4,-364.84 359.24,-364.84 359.24,4 -4,4"/>
<!-- experimental_lowqa_app -->
<g id="node1" class="node">
<title>experimental_lowqa_app</title><style>.edge>path:hover{stroke-width:8}</style>
<ellipse fill="#964040" stroke="black" cx="140.15" cy="-21.21" rx="84.29" ry="21.43"/>
<text text-anchor="middle" x="140.15" y="-24.21" font-family="Helvetica,sans-Serif" font-size="10.00" fill="#ffffff">experimental_lowqa.</text>
<text text-anchor="middle" x="140.15" y="-13.21" font-family="Helvetica,sans-Serif" font-size="10.00" fill="#ffffff">app</text>
</g>
<!-- experimental_lowqa_commands -->
<g id="node2" class="node">
<title>experimental_lowqa_commands</title><style>.edge>path:hover{stroke-width:8}</style>
<ellipse fill="#c24747" stroke="black" cx="84.15" cy="-99.64" rx="84.29" ry="21.43"/>
<text text-anchor="middle" x="84.15" y="-102.64" font-family="Helvetica,sans-Serif" font-size="10.00" fill="#ffffff">experimental_lowqa.</text>
<text text-anchor="middle" x="84.15" y="-91.64" font-family="Helvetica,sans-Serif" font-size="10.00" fill="#ffffff">commands</text>
</g>
<!-- experimental_lowqa_commands&#45;&gt;experimental_lowqa_app -->
<g id="edge1" class="edge">
<title>experimental_lowqa_commands&#45;&gt;experimental_lowqa_app</title><style>.edge>path:hover{stroke-width:8}</style>
<path fill="none" stroke="black" d="M98.86,-78.56C105.16,-69.96 112.63,-59.76 119.47,-50.42"/>
<polygon fill="#c24747" stroke="black" points="122.44,-52.29 125.53,-42.16 116.8,-48.16 122.44,-52.29"/>
</g>
<!-- experimental_lowqa_commands_all -->
<g id="node3" class="node">
<title>experimental_lowqa_commands_all</title><style>.edge>path:hover{stroke-width:8}</style>
<ellipse fill="#b83d3d" stroke="black" cx="196.15" cy="-185.84" rx="84.29" ry="28.98"/>
<text text-anchor="middle" x="196.15" y="-194.34" font-family="Helvetica,sans-Serif" font-size="10.00" fill="#ffffff">experimental_lowqa.</text>
<text text-anchor="middle" x="196.15" y="-183.34" font-family="Helvetica,sans-Serif" font-size="10.00" fill="#ffffff">commands.</text>
<text text-anchor="middle" x="196.15" y="-172.34" font-family="Helvetica,sans-Serif" font-size="10.00" fill="#ffffff">all</text>
</g>
<!-- experimental_lowqa_commands_all&#45;&gt;experimental_lowqa_app -->
<g id="edge2" class="edge">
<title>experimental_lowqa_commands_all&#45;&gt;experimental_lowqa_app</title><style>.edge>path:hover{stroke-width:8}</style>
<path fill="none" stroke="black" d="M200.36,-156.88C201.85,-140.17 201.94,-118.74 196.15,-100.64"/>
</g>
<!-- vcorelib -->
<g id="node4" class="node">
<title>vcorelib</title><style>.edge>path:hover{stroke-width:8}</style>
<ellipse fill="#47c2c2" stroke="black" cx="196.15" cy="-342.84" rx="32.93" ry="18"/>
<text text-anchor="middle" x="196.15" y="-340.34" font-family="Helvetica,sans-Serif" font-size="10.00" fill="#000000">vcorelib</text>
</g>
<!-- vcorelib&#45;&gt;experimental_lowqa_app -->
<g id="edge3" class="edge">
<title>vcorelib&#45;&gt;experimental_lowqa_app</title><style>.edge>path:hover{stroke-width:8}</style>
<path fill="none" stroke="black" d="M199.58,-324.63C202.53,-306.05 205.02,-275.87 196.15,-251.84"/>
<path fill="none" stroke="black" d="M196.15,-250.84C177.5,-210.62 128.2,-251.4 103.15,-214.84 88.58,-193.58 89.48,-178.7 103.15,-156.85 128.76,-115.91 210.88,-146.63 196.15,-100.64"/>
<path fill="none" stroke="black" d="M196.15,-98.64C189.86,-80.59 177.74,-63.18 166.38,-49.55"/>
<polygon fill="#47c2c2" stroke="black" points="169.02,-47.25 159.83,-41.98 163.73,-51.83 169.02,-47.25"/>
</g>
<!-- vcorelib&#45;&gt;experimental_lowqa_commands_all -->
<g id="edge4" class="edge">
<title>vcorelib&#45;&gt;experimental_lowqa_commands_all</title><style>.edge>path:hover{stroke-width:8}</style>
<path fill="none" stroke="black" d="M196.15,-250.84C193.19,-242.83 192.01,-233.88 191.8,-225.25"/>
<polygon fill="#47c2c2" stroke="black" points="195.31,-225.05 191.98,-214.99 188.31,-224.93 195.31,-225.05"/>
</g>
<!-- vcorelib_args -->
<g id="node5" class="node">
<title>vcorelib_args</title><style>.edge>path:hover{stroke-width:8}</style>
<ellipse fill="#47c2c2" stroke="black" cx="308.15" cy="-342.84" rx="47.19" ry="18"/>
<text text-anchor="middle" x="308.15" y="-340.34" font-family="Helvetica,sans-Serif" font-size="10.00" fill="#000000">vcorelib.args</text>
</g>
<!-- vcorelib_args&#45;&gt;experimental_lowqa_app -->
<g id="edge5" class="edge">
<title>vcorelib_args&#45;&gt;experimental_lowqa_app</title><style>.edge>path:hover{stroke-width:8}</style>
<path fill="none" stroke="black" d="M308.15,-250.84C290.22,-212.17 313.67,-191.7 289.15,-156.85 261.35,-117.36 212.03,-146.25 196.15,-100.64"/>
</g>
<!-- vcorelib_args&#45;&gt;experimental_lowqa_commands_all -->
<g id="edge6" class="edge">
<title>vcorelib_args&#45;&gt;experimental_lowqa_commands_all</title><style>.edge>path:hover{stroke-width:8}</style>
<path fill="none" stroke="black" d="M311.58,-324.63C314.53,-306.05 317.02,-275.87 308.15,-251.84"/>
<path fill="none" stroke="black" d="M308.15,-250.84C299.88,-233.02 284.14,-219.89 267,-210.34"/>
<polygon fill="#47c2c2" stroke="black" points="268.44,-207.15 257.95,-205.67 265.23,-213.37 268.44,-207.15"/>
</g>
</g>
</svg>
